<svg width="176" height="135" viewBox="0 0 176 135" fill="none" xmlns="http://www.w3.org/2000/svg">
<g clip-path="url(#clip0_25_18042)">
<path d="M106.785 74.395C106.234 74.395 105.682 74.185 105.262 73.764C104.42 72.923 104.42 71.558 105.262 70.717L133.468 42.511C134.309 41.67 135.674 41.67 136.515 42.511C137.357 43.352 137.357 44.717 136.515 45.558L108.309 73.764C107.888 74.185 107.336 74.395 106.785 74.395Z" fill="#204859"/>
<path d="M78.578 95.55C78.249 95.55 77.919 95.475 77.615 95.323L49.409 81.219C48.679 80.854 48.218 80.108 48.218 79.292V15.828C48.218 15.012 48.679 14.266 49.409 13.901L77.615 -0.202031C78.679 -0.734031 79.973 -0.303031 80.506 0.761969C81.038 1.82597 80.607 3.12097 79.542 3.65297L52.527 17.16V77.96L76.424 89.908V29.931C76.424 28.741 77.389 27.776 78.579 27.776C79.769 27.776 80.734 28.741 80.734 29.931V93.395C80.734 94.142 80.347 94.835 79.712 95.228C79.365 95.442 78.972 95.55 78.578 95.55Z" fill="#204859"/>
<path d="M134.991 46.1889C133.801 46.1889 132.836 45.2239 132.836 44.0339V3.87995H78.578C77.388 3.87995 76.423 2.91495 76.423 1.72495C76.423 0.534946 77.388 -0.430054 78.578 -0.430054H134.99C136.18 -0.430054 137.145 0.534946 137.145 1.72495V44.0339C137.145 45.2239 136.181 46.1889 134.991 46.1889Z" fill="#204859"/>
<path d="M106.783 74.395C106.459 74.395 106.13 74.322 105.821 74.167L77.615 60.065C76.995 59.755 76.563 59.167 76.452 58.483C76.341 57.799 76.566 57.104 77.055 56.614L105.261 28.408C106.102 27.567 107.467 27.567 108.308 28.408C109.15 29.249 109.15 30.614 108.308 31.455L82.216 57.547L107.749 70.313C108.813 70.845 109.244 72.139 108.712 73.204C108.334 73.959 107.573 74.395 106.783 74.395Z" fill="#204859"/>
<path d="M106.785 32.086H78.578C77.388 32.086 76.423 31.121 76.423 29.931C76.423 28.741 77.388 27.776 78.578 27.776H106.784C107.974 27.776 108.939 28.741 108.939 29.931C108.939 31.121 107.974 32.086 106.785 32.086Z" fill="#204859"/>
<path d="M106.785 32.0859C106.234 32.0859 105.682 31.8759 105.262 31.4549C104.42 30.6139 104.42 29.2489 105.262 28.4079L133.468 0.201917C134.309 -0.639083 135.674 -0.639083 136.515 0.201917C137.357 1.04292 137.357 2.40792 136.515 3.24892L108.309 31.4549C107.888 31.8749 107.336 32.0859 106.785 32.0859Z" fill="#204859"/>
<path d="M0 133.153V115.463H8.3C9.234 115.463 10.08 115.619 10.836 115.93C11.593 116.242 12.238 116.664 12.772 117.199C13.306 117.733 13.718 118.364 14.007 119.09C14.296 119.817 14.441 120.603 14.441 121.449C14.441 122.28 14.285 123.059 13.973 123.785C13.662 124.512 13.235 125.15 12.693 125.699C12.152 126.248 11.514 126.678 10.78 126.99C10.045 127.302 9.263 127.457 8.433 127.457H4.517V133.153H0ZM4.517 124.319H7.855C8.197 124.319 8.504 124.23 8.779 124.052C9.054 123.874 9.29 123.648 9.491 123.373C9.691 123.099 9.843 122.791 9.947 122.45C10.051 122.109 10.103 121.775 10.103 121.449C10.103 121.123 10.036 120.793 9.903 120.459C9.769 120.125 9.591 119.824 9.369 119.558C9.147 119.291 8.891 119.072 8.601 118.902C8.312 118.732 8.011 118.646 7.7 118.646H4.517V124.319Z" fill="#204859"/>
<path d="M32.287 133.153H27.155L23.402 127.434H20.849V133.153H16.198V115.463H24.752C25.715 115.463 26.593 115.619 27.385 115.93C28.178 116.242 28.855 116.664 29.418 117.199C29.981 117.733 30.414 118.364 30.718 119.09C31.021 119.817 31.174 120.603 31.174 121.449C31.174 122.651 30.851 123.73 30.207 124.686C29.564 125.643 28.709 126.366 27.643 126.856L32.287 133.153ZM20.849 124.319H24.298C24.654 124.319 24.976 124.23 25.266 124.052C25.555 123.874 25.804 123.648 26.011 123.373C26.219 123.099 26.378 122.791 26.49 122.45C26.601 122.109 26.657 121.775 26.657 121.449C26.657 121.123 26.59 120.793 26.457 120.459C26.323 120.125 26.137 119.824 25.901 119.558C25.663 119.291 25.392 119.072 25.089 118.902C24.785 118.732 24.462 118.646 24.121 118.646H20.85L20.849 124.319Z" fill="#204859"/>
<path d="M41.054 115.352C42.462 115.352 43.724 115.589 44.836 116.064C45.949 116.539 46.89 117.18 47.662 117.989C48.433 118.798 49.023 119.747 49.431 120.837C49.838 121.928 50.043 123.096 50.043 124.342C50.043 125.692 49.821 126.92 49.375 128.025C48.93 129.13 48.311 130.076 47.517 130.862C46.723 131.648 45.778 132.257 44.68 132.687C43.582 133.117 42.373 133.332 41.053 133.332C39.569 133.332 38.268 133.095 37.148 132.62C36.028 132.145 35.09 131.504 34.333 130.695C33.576 129.887 33.009 128.937 32.631 127.847C32.252 126.757 32.063 125.588 32.063 124.342C32.063 123.096 32.271 121.928 32.686 120.837C33.101 119.747 33.698 118.798 34.477 117.989C35.257 117.181 36.202 116.54 37.315 116.064C38.428 115.589 39.674 115.352 41.054 115.352ZM41.054 129.86C41.735 129.86 42.352 129.726 42.9 129.46C43.449 129.193 43.909 128.818 44.28 128.336C44.65 127.854 44.936 127.272 45.137 126.589C45.337 125.907 45.438 125.15 45.438 124.32C45.438 123.549 45.352 122.829 45.181 122.162C45.011 121.494 44.748 120.908 44.392 120.404C44.035 119.9 43.583 119.503 43.034 119.214C42.485 118.924 41.825 118.78 41.054 118.78C40.282 118.78 39.618 118.928 39.062 119.225C38.506 119.522 38.05 119.919 37.694 120.415C37.338 120.912 37.075 121.498 36.904 122.173C36.733 122.848 36.648 123.564 36.648 124.32C36.648 125.076 36.737 125.792 36.915 126.467C37.093 127.142 37.36 127.732 37.716 128.236C38.072 128.741 38.528 129.137 39.084 129.427C39.641 129.715 40.297 129.86 41.054 129.86Z" fill="#204859"/>
<path d="M50.888 128.369C51.111 128.533 51.33 128.692 51.544 128.848C51.76 129.004 52 129.141 52.267 129.26C52.534 129.379 52.839 129.479 53.179 129.561C53.521 129.643 53.928 129.683 54.403 129.683C55.16 129.683 55.749 129.527 56.172 129.216C56.595 128.905 56.903 128.493 57.096 127.981C57.289 127.469 57.403 126.891 57.44 126.245C57.477 125.6 57.496 124.936 57.496 124.254V115.465H61.835V125.211C61.835 126.443 61.727 127.559 61.512 128.56C61.296 129.561 60.93 130.414 60.411 131.119C59.891 131.824 59.205 132.369 58.352 132.754C57.499 133.14 56.427 133.333 55.137 133.333C54.617 133.333 54.091 133.274 53.557 133.155C53.023 133.036 52.514 132.888 52.032 132.71C51.55 132.532 51.106 132.335 50.697 132.12C50.289 131.905 49.944 131.694 49.663 131.486L50.888 128.369Z" fill="#204859"/>
<path d="M69.402 122.584H76.589V126.01H69.402V129.771H77.813V133.153H66.346H64.885V115.463H77.813V118.823H69.402V122.584Z" fill="#204859"/>
<path d="M96.704 126.5C96.511 127.479 96.2 128.388 95.77 129.226C95.34 130.064 94.776 130.787 94.079 131.395C93.382 132.004 92.539 132.478 91.553 132.819C90.566 133.16 89.413 133.331 88.092 133.331C86.905 133.331 85.782 133.142 84.721 132.764C83.661 132.386 82.73 131.822 81.929 131.073C81.128 130.324 80.493 129.393 80.026 128.281C79.558 127.168 79.325 125.878 79.325 124.409C79.325 123.163 79.529 121.995 79.937 120.904C80.345 119.814 80.935 118.864 81.706 118.056C82.478 117.248 83.408 116.606 84.499 116.131C85.59 115.656 86.824 115.419 88.204 115.419C89.376 115.419 90.447 115.579 91.42 115.898C92.391 116.217 93.237 116.666 93.956 117.244C94.675 117.823 95.269 118.527 95.736 119.358C96.204 120.189 96.518 121.116 96.682 122.139L92.766 122.584C92.647 122.05 92.476 121.553 92.254 121.093C92.032 120.633 91.75 120.236 91.409 119.903C91.067 119.569 90.656 119.31 90.174 119.124C89.691 118.939 89.139 118.846 88.516 118.846C87.656 118.846 86.947 119.021 86.391 119.369C85.835 119.718 85.394 120.159 85.068 120.693C84.742 121.227 84.515 121.821 84.39 122.473C84.263 123.126 84.2 123.756 84.2 124.364C84.2 126.114 84.585 127.468 85.357 128.425C86.128 129.382 87.167 129.86 88.472 129.86C89.614 129.86 90.538 129.545 91.242 128.914C91.946 128.284 92.447 127.383 92.744 126.21L96.704 126.5Z" fill="#204859"/>
<path d="M113.059 118.801H107.429V133.153H102.912V118.801H97.304V115.463H113.058L113.059 118.801Z" fill="#204859"/>
<path d="M116.886 117.377V123.296H124.985V125.21H116.886V131.24H126.209V133.154H114.416V115.464H126.209V117.378L116.886 117.377Z" fill="#204859"/>
<path d="M129.524 133.153V115.463H135.932C137.134 115.463 138.269 115.678 139.336 116.108C140.405 116.539 141.335 117.143 142.129 117.922C142.923 118.701 143.554 119.628 144.02 120.703C144.488 121.778 144.721 122.969 144.721 124.274C144.721 125.58 144.483 126.777 144.009 127.868C143.534 128.958 142.896 129.893 142.095 130.672C141.294 131.451 140.363 132.059 139.302 132.496C138.242 132.934 137.118 133.152 135.931 133.152H129.524V133.153ZM142.297 124.263C142.297 123.268 142.141 122.35 141.829 121.511C141.517 120.671 141.067 119.943 140.48 119.326C139.893 118.71 139.179 118.231 138.34 117.889C137.499 117.547 136.56 117.376 135.519 117.376H131.996V131.239H135.519C136.515 131.239 137.429 131.05 138.262 130.671C139.094 130.292 139.812 129.787 140.414 129.155C141.016 128.524 141.481 127.784 141.808 126.938C142.132 126.091 142.297 125.2 142.297 124.263Z" fill="#204859"/>
<path d="M153.496 133.153L160.298 115.463H163.612L170.388 133.153H166.053L164.683 129.191H159.177L157.832 133.153H153.496ZM161.942 119.799L159.823 126.376H163.985L161.942 119.799Z" fill="#204859"/>
<path d="M172.008 133.153V115.463H176.094V133.153H172.008Z" fill="#204859"/>
</g>
<defs>
<clipPath id="clip0_25_18042">
<rect width="176" height="135" fill="white"/>
</clipPath>
</defs>
</svg>
