<svg width="347" height="46" viewBox="0 0 347 46" fill="none" xmlns="http://www.w3.org/2000/svg">
<g clip-path="url(#clip0_25_18044)">
<path d="M28.043 35.828C27.779 35.828 27.515 35.727 27.314 35.526C26.911 35.123 26.911 34.47 27.314 34.067L40.82 20.561C41.223 20.158 41.876 20.158 42.279 20.561C42.682 20.964 42.682 21.617 42.279 22.02L28.773 35.526C28.571 35.727 28.307 35.828 28.043 35.828Z" fill="#204859"/>
<path d="M14.537 45.9572C14.379 45.9572 14.221 45.9212 14.076 45.8482L0.57 39.0962C0.221 38.9212 0 38.5642 0 38.1732V7.78519C0 7.39419 0.221 7.03719 0.57 6.86219L14.076 0.10919C14.585 -0.14581 15.205 0.0611901 15.46 0.57019C15.715 1.08019 15.508 1.69919 14.999 1.95419L2.063 8.42219V37.5352L13.505 43.2562V14.5382C13.505 13.9682 13.967 13.5062 14.537 13.5062C15.107 13.5062 15.569 13.9682 15.569 14.5382V44.9262C15.569 45.2842 15.384 45.6162 15.08 45.8042C14.914 45.9062 14.726 45.9572 14.537 45.9572Z" fill="#204859"/>
<path d="M41.549 22.322C40.979 22.322 40.517 21.86 40.517 21.29V2.064H14.537C13.967 2.064 13.505 1.602 13.505 1.032C13.505 0.462 13.968 0 14.538 0H41.55C42.12 0 42.582 0.462 42.582 1.032V21.291C42.581 21.86 42.119 22.322 41.549 22.322Z" fill="#204859"/>
<path d="M28.0431 35.828C27.8881 35.828 27.7301 35.793 27.5821 35.719L14.0761 28.966C13.7791 28.818 13.5721 28.536 13.5191 28.208C13.4661 27.88 13.5731 27.548 13.8081 27.313L27.3141 13.807C27.7171 13.404 28.3701 13.404 28.7731 13.807C29.1761 14.21 29.1761 14.863 28.7731 15.266L16.2791 27.761L28.5051 33.874C29.0151 34.129 29.2211 34.749 28.9661 35.258C28.7851 35.619 28.4211 35.828 28.0431 35.828Z" fill="#204859"/>
<path d="M28.043 15.569H14.538C13.968 15.569 13.506 15.107 13.506 14.537C13.506 13.967 13.968 13.505 14.538 13.505H28.044C28.614 13.505 29.076 13.967 29.076 14.537C29.075 15.107 28.613 15.569 28.043 15.569Z" fill="#204859"/>
<path d="M28.043 15.569C27.779 15.569 27.515 15.468 27.314 15.267C26.911 14.864 26.911 14.211 27.314 13.808L40.82 0.302006C41.223 -0.100994 41.876 -0.100994 42.279 0.302006C42.682 0.705006 42.682 1.35801 42.279 1.76101L28.773 15.267C28.571 15.469 28.307 15.569 28.043 15.569Z" fill="#204859"/>
<path d="M66.725 36.954V8.89697H79.89C81.372 8.89697 82.712 9.14397 83.913 9.63797C85.113 10.132 86.136 10.803 86.984 11.65C87.831 12.497 88.484 13.497 88.942 14.65C89.401 15.803 89.631 17.05 89.631 18.391C89.631 19.709 89.384 20.944 88.889 22.097C88.396 23.25 87.719 24.262 86.86 25.132C86.002 26.003 84.989 26.685 83.826 27.18C82.661 27.674 81.42 27.921 80.103 27.921H73.89V36.956H66.725V36.954ZM73.89 22.944H79.184C79.726 22.944 80.213 22.802 80.649 22.52C81.085 22.238 81.46 21.879 81.778 21.443C82.096 21.008 82.336 20.521 82.501 19.979C82.666 19.438 82.749 18.908 82.749 18.391C82.749 17.874 82.643 17.35 82.431 16.821C82.219 16.291 81.936 15.815 81.584 15.392C81.231 14.968 80.826 14.622 80.366 14.351C79.907 14.081 79.431 13.945 78.937 13.945H73.89V22.944Z" fill="#204859"/>
<path d="M117.935 36.954H109.796L103.844 27.884H99.794V36.954H92.418V8.89697H105.985C107.512 8.89697 108.904 9.14397 110.16 9.63797C111.418 10.132 112.492 10.803 113.385 11.65C114.278 12.497 114.965 13.497 115.446 14.65C115.927 15.803 116.169 17.05 116.169 18.391C116.169 20.297 115.657 22.009 114.636 23.526C113.616 25.044 112.26 26.191 110.57 26.967L117.935 36.954ZM99.794 22.944H105.265C105.829 22.944 106.341 22.802 106.8 22.52C107.259 22.238 107.654 21.879 107.982 21.443C108.312 21.008 108.565 20.521 108.742 19.979C108.918 19.438 109.007 18.908 109.007 18.391C109.007 17.874 108.901 17.35 108.689 16.821C108.477 16.291 108.182 15.815 107.807 15.392C107.43 14.968 107 14.622 106.519 14.351C106.036 14.081 105.525 13.945 104.983 13.945H99.795L99.794 22.944Z" fill="#204859"/>
<path d="M131.84 8.72095C134.074 8.72095 136.074 9.09695 137.839 9.84995C139.604 10.6039 141.097 11.6209 142.322 12.9019C143.545 14.1849 144.48 15.6899 145.128 17.4189C145.774 19.1489 146.098 21.0009 146.098 22.9779C146.098 25.1189 145.745 27.0659 145.039 28.8189C144.334 30.5719 143.352 32.0719 142.092 33.3189C140.833 34.5659 139.333 35.5309 137.593 36.2129C135.851 36.8959 133.934 37.2359 131.841 37.2359C129.488 37.2359 127.423 36.8599 125.647 36.1069C123.87 35.3539 122.383 34.3359 121.183 33.0539C119.983 31.7719 119.082 30.2659 118.483 28.5369C117.882 26.8079 117.583 24.9549 117.583 22.9779C117.583 21.0009 117.913 19.1489 118.571 17.4189C119.229 15.6899 120.177 14.1849 121.412 12.9019C122.648 11.6199 124.148 10.6029 125.913 9.84995C127.675 9.09695 129.652 8.72095 131.84 8.72095ZM131.84 31.7309C132.921 31.7309 133.898 31.5189 134.768 31.0959C135.638 30.6719 136.368 30.0779 136.956 29.3129C137.543 28.5489 137.997 27.6259 138.315 26.5429C138.633 25.4609 138.792 24.2609 138.792 22.9429C138.792 21.7189 138.656 20.5779 138.385 19.5199C138.116 18.4609 137.698 17.5309 137.133 16.7319C136.567 15.9319 135.85 15.3029 134.979 14.8439C134.109 14.3849 133.062 14.1549 131.839 14.1549C130.615 14.1549 129.561 14.3899 128.679 14.8609C127.797 15.3319 127.073 15.9609 126.509 16.7489C125.945 17.5369 125.527 18.4669 125.256 19.5369C124.985 20.6079 124.85 21.7429 124.85 22.9429C124.85 24.1419 124.991 25.278 125.274 26.3489C125.557 27.4199 125.979 28.3549 126.545 29.1539C127.109 29.9549 127.833 30.5829 128.715 31.0429C129.599 31.5019 130.64 31.7309 131.84 31.7309Z" fill="#204859"/>
<path d="M147.438 29.366C147.792 29.626 148.139 29.878 148.479 30.125C148.821 30.372 149.202 30.59 149.626 30.778C150.05 30.966 150.533 31.125 151.073 31.255C151.615 31.384 152.261 31.449 153.015 31.449C154.215 31.449 155.15 31.202 155.821 30.708C156.491 30.214 156.98 29.561 157.286 28.749C157.592 27.937 157.773 27.02 157.832 25.996C157.891 24.973 157.921 23.92 157.921 22.838V8.89697H164.802V24.355C164.802 26.309 164.631 28.079 164.29 29.667C163.948 31.255 163.367 32.608 162.544 33.725C161.719 34.843 160.631 35.708 159.278 36.319C157.925 36.931 156.225 37.237 154.179 37.237C153.354 37.237 152.52 37.143 151.673 36.955C150.826 36.767 150.019 36.531 149.255 36.249C148.491 35.967 147.786 35.655 147.138 35.314C146.49 34.973 145.944 34.638 145.497 34.308L147.438 29.366Z" fill="#204859"/>
<path d="M176.803 20.191H188.202V25.626H176.803V31.591H190.143V36.955H171.955H169.638V8.89697H190.143V14.226H176.803V20.191Z" fill="#204859"/>
<path d="M220.105 26.402C219.799 27.955 219.306 29.397 218.623 30.726C217.94 32.056 217.046 33.203 215.941 34.167C214.835 35.133 213.498 35.885 211.935 36.426C210.37 36.967 208.54 37.238 206.446 37.238C204.563 37.238 202.782 36.938 201.099 36.338C199.418 35.738 197.941 34.844 196.671 33.656C195.4 32.468 194.393 30.992 193.653 29.227C192.911 27.462 192.541 25.416 192.541 23.086C192.541 21.11 192.865 19.257 193.511 17.527C194.159 15.798 195.094 14.292 196.317 13.01C197.541 11.728 199.017 10.71 200.747 9.958C202.477 9.205 204.435 8.828 206.623 8.828C208.481 8.828 210.181 9.081 211.723 9.587C213.264 10.093 214.604 10.805 215.746 11.722C216.887 12.64 217.828 13.758 218.57 15.075C219.312 16.393 219.811 17.863 220.07 19.487L213.859 20.193C213.67 19.346 213.399 18.558 213.046 17.828C212.693 17.099 212.247 16.469 211.705 15.94C211.163 15.41 210.511 14.999 209.747 14.704C208.981 14.41 208.105 14.263 207.117 14.263C205.753 14.263 204.629 14.54 203.747 15.092C202.865 15.645 202.166 16.345 201.648 17.192C201.13 18.039 200.77 18.981 200.572 20.016C200.371 21.051 200.271 22.051 200.271 23.016C200.271 25.792 200.882 27.939 202.107 29.457C203.33 30.974 204.978 31.733 207.048 31.733C208.86 31.733 210.324 31.234 211.441 30.233C212.558 29.233 213.352 27.804 213.823 25.945L220.105 26.402Z" fill="#204859"/>
<path d="M246.046 14.191H237.117V36.955H229.953V14.191H221.059V8.89697H246.046V14.191Z" fill="#204859"/>
<path d="M252.116 11.932V21.32H264.962V24.355H252.116V33.92H266.903V36.955H248.198V8.89697H266.903V11.932H252.116Z" fill="#204859"/>
<path d="M272.161 36.954V8.89697H282.325C284.232 8.89697 286.031 9.23797 287.725 9.91997C289.42 10.603 290.896 11.561 292.155 12.797C293.414 14.032 294.414 15.503 295.155 17.209C295.897 18.915 296.267 20.803 296.267 22.873C296.267 24.944 295.89 26.843 295.138 28.573C294.384 30.302 293.373 31.784 292.102 33.02C290.832 34.255 289.355 35.22 287.672 35.914C285.991 36.609 284.208 36.955 282.325 36.955H272.161V36.954ZM292.419 22.855C292.419 21.277 292.171 19.821 291.676 18.49C291.181 17.158 290.467 16.004 289.536 15.025C288.605 14.047 287.473 13.288 286.141 12.746C284.808 12.203 283.317 11.933 281.666 11.933H276.079V33.92H281.666C283.246 33.92 284.696 33.62 286.017 33.019C287.337 32.418 288.475 31.617 289.43 30.615C290.385 29.614 291.122 28.441 291.641 27.098C292.159 25.753 292.419 24.34 292.419 22.855Z" fill="#204859"/>
<path d="M310.182 36.955L320.97 8.89697H326.227L336.975 36.954H330.099L327.926 30.671H319.193L317.059 36.954H310.182V36.955ZM323.579 15.773L320.219 26.205H326.82L323.579 15.773Z" fill="#204859"/>
<path d="M339.544 36.955V8.89697H346.024V36.954H339.544V36.955Z" fill="#204859"/>
</g>
<defs>
<clipPath id="clip0_25_18044">
<rect width="346.253" height="45.957" fill="white"/>
</clipPath>
</defs>
</svg>
