<?xml version="1.0" encoding="UTF-8"?>
<svg version="1.1" xmlns="http://www.w3.org/2000/svg" width="3762" height="579">
<path d="M0 0 C28.06697281 21.36531652 43.83999776 54.97060911 60.92358398 84.9309082 C68.48645161 98.18890406 76.18612996 111.36610728 83.9226532 124.52340698 C92.70147747 139.45341145 101.38769109 154.43031862 109.96191406 169.47875977 C118.22904981 183.98539877 126.55755345 198.45775076 135.05297852 212.83203125 C138.72908382 219.06341431 142.3375421 225.33318911 145.94628906 231.60375977 C151.38169396 241.04653038 156.8642846 250.45994858 162.38378906 259.85375977 C168.44593353 270.17189827 174.45789447 280.51735536 180.42626953 290.89013672 C184.59084491 298.12471615 188.79125396 305.33744999 193.00878906 312.54125977 C198.17884105 321.37660918 203.24713378 330.26484124 208.26220703 339.18896484 C211.48392491 344.91179222 214.77505601 350.58548305 218.13378906 356.22875977 C238.84126122 391.30375116 252.33559128 429.86285782 242.14160156 470.97875977 C237.50356177 487.76684676 229.35709573 502.29792804 217.88378906 515.35375977 C217.19800781 516.18391602 216.51222656 517.01407227 215.80566406 517.86938477 C197.29191592 539.67446591 168.33607601 554.49394015 139.88378906 557.35375977 C105.61813095 558.7594442 74.73758116 553.02353326 47.88378906 530.35375977 C46.89121094 529.52360352 45.89863281 528.69344727 44.87597656 527.83813477 C22.84995019 508.84460077 8.52880618 482.15754555 4.88378906 453.35375977 C3.37929585 424.32845424 5.56332176 393.54733162 24.50878906 369.79125977 C31.42570589 362.69231881 38.46922967 360.5422101 48.34082031 360.25219727 C57.20892999 360.68579518 63.38153726 362.44816794 69.57128906 368.91625977 C74.58292363 375.10034095 78.88231237 382.6792147 78.37207031 390.85766602 C77.01973416 397.77080842 74.11437778 404.27728796 71.50878906 410.79125977 C65.33666666 426.36852106 63.2952422 442.12509699 68.88378906 458.35375977 C74.9693569 472.33902135 84.10479549 484.82516728 98.45410156 490.85375977 C116.46606741 497.47193511 136.48830268 498.00047955 154.14941406 489.84594727 C167.94222293 482.39505805 177.34539731 470.5291293 181.85913086 455.58007812 C189.29413352 427.5734022 176.99517473 406.78262158 163.27050781 383.10375977 C160.91033753 379.05040288 158.53575507 375.00573768 156.15722656 370.96313477 C153.30015272 366.09308506 150.53722965 361.178574 147.82128906 356.22875977 C143.15919648 347.74874738 138.23936797 339.43102508 133.29785156 331.11157227 C129.84133363 325.29121649 126.41909204 319.45129388 123.00878906 313.60375977 C122.42887207 312.60948975 121.84895508 311.61521973 121.25146484 310.59082031 C116.34753339 302.17125729 111.49005915 293.72521711 106.63256836 285.27880859 C102.09596883 277.40893452 97.47287533 269.59359518 92.82128906 261.79125977 C87.06505655 252.12851601 81.48954479 242.3817253 76.02758789 232.55004883 C71.54626726 224.49599803 66.93359296 216.52623575 62.26953125 208.5769043 C58.13284901 201.51838909 54.06097587 194.42478879 50.01654053 187.31314087 C43.75727131 176.30776779 37.37319375 165.38614817 30.89086914 154.51000977 C26.07000076 146.40307045 21.35857091 138.23988015 16.69628906 130.04125977 C10.96955885 119.97418202 5.16730399 109.95778896 -0.76464844 100.01000977 C-2.89424553 96.4346429 -4.99248219 92.84318378 -7.06564331 89.23478699 C-19.22731318 68.07264311 -30.10058669 50.22848277 -54.11621094 41.35375977 C-71.34192909 36.97930643 -88.44514649 40.51822754 -104.11621094 48.35375977 C-118.72213387 57.55667869 -126.01145948 72.72734553 -134.11621094 87.35375977 C-136.50860853 91.64734781 -138.90579754 95.93825029 -141.30371094 100.22875977 C-141.90062744 101.29860107 -142.49754395 102.36844238 -143.11254883 103.47070312 C-146.54741323 109.61061251 -150.05925498 115.68564346 -153.72338867 121.69091797 C-157.06435563 127.19507898 -160.21389245 132.80244015 -163.36621094 138.41625977 C-169.78059871 149.8308988 -176.42255768 161.10130612 -183.11621094 172.35375977 C-189.45071858 183.01580234 -195.63615622 193.75711618 -201.76959229 204.53604126 C-206.85605983 213.46894171 -212.04062288 222.33619354 -217.30371094 231.16625977 C-223.82931557 242.12079746 -230.14958441 253.17617431 -236.39306641 264.29321289 C-244.62343743 278.91150861 -252.92102371 293.48876803 -261.60864258 307.84106445 C-270.87501686 323.18561819 -279.6769201 338.81105999 -288.55761719 354.38085938 C-291.91681055 360.26672601 -295.29602298 366.14078812 -298.68505859 372.00952148 C-299.96691846 374.22935921 -301.24785134 376.4497325 -302.52783203 378.6706543 C-305.52577311 383.87239524 -308.53147678 389.06908453 -311.56152344 394.25219727 C-322.53746904 413.09781334 -330.70102652 429.94701792 -325.09545898 452.03027344 C-320.7636599 467.44930775 -313.12061371 479.82055875 -299.51464844 488.52563477 C-283.05271933 497.38101732 -264.95309276 498.47646285 -247.11621094 493.35375977 C-231.63368653 488.24284179 -221.7397288 478.496519 -213.67871094 464.60375977 C-212.92509277 463.32662109 -212.92509277 463.32662109 -212.15625 462.02368164 C-205.72674055 451.07834613 -199.46248707 440.03578382 -193.18945312 429.00024414 C-189.79637364 423.03113712 -186.39540054 417.06653658 -182.99121094 411.10375977 C-182.65868317 410.52120422 -182.3261554 409.93864868 -181.98355103 409.33843994 C-176.81797461 400.29252331 -171.5949374 391.28133029 -166.33447266 382.2902832 C-162.06692001 374.99418383 -157.83460209 367.67838127 -153.61621094 360.35375977 C-145.92514992 347.00353827 -138.16138083 333.69642762 -130.38671875 320.39477539 C-123.81298626 309.14564715 -117.2550917 297.88767452 -110.74121094 286.60375977 C-110.12487793 285.53609375 -109.50854492 284.46842773 -108.87353516 283.3684082 C-105.55190687 277.60564538 -102.24729207 271.83365612 -98.96386719 266.04907227 C-75.19902206 224.18591935 -75.19902206 224.18591935 -64.17871094 220.41625977 C-55.66520182 218.30740888 -46.72313948 218.61073502 -38.76074219 222.50610352 C-30.83240359 227.30029151 -26.02743464 234.462587 -23.56152344 243.35375977 C-20.62969055 261.65983826 -36.46016522 281.56773595 -45.39453125 296.47924805 C-53.12654198 309.38859212 -60.72782875 322.36132667 -68.10717773 335.47558594 C-77.86901091 352.81524401 -87.88325536 370.00132078 -98.06030273 387.10009766 C-103.56241576 396.36727093 -108.92450248 405.70900561 -114.25219727 415.07714844 C-118.52989166 422.59623614 -122.86350122 430.07998079 -127.24121094 437.54125977 C-131.92523496 445.52893412 -136.49373466 453.57219919 -140.99121094 461.66625977 C-145.72048501 470.15709059 -150.52729119 478.59754913 -155.45806885 486.9727478 C-156.45418859 488.66583358 -157.44521194 490.36191463 -158.43603516 492.05810547 C-164.97365639 503.10015279 -172.09683992 512.89204884 -181.24121094 521.91625977 C-182.07305908 522.73908447 -182.90490723 523.56190918 -183.76196289 524.40966797 C-208.24067172 548.21017881 -238.05318446 557.91148538 -271.94287109 557.77539062 C-288.23466241 557.46543126 -302.33564625 554.09369726 -317.11621094 547.35375977 C-318.66888672 546.65959961 -318.66888672 546.65959961 -320.25292969 545.95141602 C-348.26737881 532.73152565 -369.80557464 510.05558415 -381.11621094 481.35375977 C-385.6510387 468.51412491 -387.35563549 456.68890919 -387.36621094 443.10375977 C-387.36688568 442.33299103 -387.36756042 441.56222229 -387.36825562 440.76809692 C-387.35274803 429.65582425 -386.95884417 419.153436 -384.11621094 408.35375977 C-383.81873216 407.05311646 -383.52187514 405.75233082 -383.22558594 404.45141602 C-379.0733197 387.53296653 -370.65078461 371.24563058 -361.17456055 356.71386719 C-357.01813471 350.32665078 -353.25346345 343.72868108 -349.49121094 337.10375977 C-348.98429214 336.2124939 -348.98429214 336.2124939 -348.46713257 335.30322266 C-346.723859 332.23809448 -344.98286231 329.17168368 -343.24365234 326.10424805 C-339.7317498 319.91103546 -336.20753266 313.72484507 -332.67871094 307.54125977 C-332.33864014 306.94522949 -331.99856934 306.34919922 -331.64819336 305.73510742 C-327.32699395 298.16601539 -322.94140314 290.64727167 -318.42480469 283.19360352 C-309.73223968 268.80201694 -301.42517473 254.17620686 -293.09963989 239.57034302 C-286.75047918 228.43390941 -280.31111461 217.35178691 -273.83398438 206.28930664 C-270.92260393 201.31397428 -268.01984682 196.33361449 -265.11621094 191.35375977 C-261.63004945 185.37595673 -258.14296868 179.39869981 -254.65136719 173.42407227 C-247.94739182 161.9485271 -241.28497469 150.45019029 -234.65600586 138.93115234 C-230.64945172 131.98017902 -226.58999838 125.0631743 -222.49121094 118.16625977 C-214.63171403 104.92474206 -207.09110682 91.50637829 -199.60839844 78.04907227 C-176.9408127 37.31158618 -153.6067095 -3.69522011 -105.99511719 -17.92358398 C-71.02206124 -27.75595615 -29.47530192 -21.72858795 0 0 Z " fill="#2C2C2C" transform="translate(387.1162109375,21.646240234375)"/>
<path d="M0 0 C7.27666398 -0.25410042 14.55218083 -0.42888872 21.83227539 -0.54931641 C24.30699407 -0.59952668 26.78141723 -0.66771247 29.25512695 -0.75439453 C32.81796095 -0.87609069 36.37686939 -0.93248596 39.94140625 -0.9765625 C41.04271378 -1.02817535 42.1440213 -1.07978821 43.27870178 -1.13296509 C50.81777168 -1.13843751 50.81777168 -1.13843751 54.1940155 2.11274719 C56.01008549 4.67125189 57.52807449 7.23134257 59 10 C60.0298383 11.71024478 61.06429644 13.41772521 62.10546875 15.12109375 C63.13602882 16.89136069 64.16327306 18.66356136 65.1875 20.4375 C69.28401048 27.44998058 73.44663554 34.40177455 77.8125 41.25 C82.59227055 48.74860521 87.28433892 56.29713664 91.9375 63.875 C92.62046143 64.98713867 93.30342285 66.09927734 94.00708008 67.24511719 C95.36395356 69.45473955 96.72080611 71.66437475 98.07763672 73.87402344 C101.38542285 79.25285169 104.71271026 84.61956582 108.04199219 89.98510742 C111.14143807 94.98438457 114.22355095 99.993956 117.29296875 105.01171875 C118.39587125 106.81241375 119.49894863 108.61300152 120.60205078 110.41357422 C121.32101619 111.58856356 122.0389664 112.76417475 122.75585938 113.94042969 C123.75533782 115.5802869 124.75845044 117.21792744 125.76171875 118.85546875 C126.33881592 119.80059326 126.91591309 120.74571777 127.51049805 121.71948242 C128.93677194 124.07366931 128.93677194 124.07366931 131 126 C131.43119141 125.25766113 131.86238281 124.51532227 132.30664062 123.75048828 C140.64673972 109.41071388 149.07700861 95.1454054 157.82275391 81.04785156 C163.28414515 72.22117114 168.59336131 63.31003599 173.875 54.375 C182.79540324 39.28854365 182.79540324 39.28854365 185.93359375 34.22265625 C186.53880859 33.24546631 186.53880859 33.24546631 187.15625 32.24853516 C187.91915948 31.05358952 188.70676578 29.87401254 189.51953125 28.71240234 C192.12836667 24.89825939 193.55078135 21.38051565 194.87890625 16.94140625 C197.08554694 10.7613166 199.28734332 4.69872873 204.96337891 0.90350342 C220.0323476 -5.78152246 243.05943138 -1.00904187 259 0 C259.90926179 46.39013612 260.13275771 92.76325749 260.07202661 139.16134012 C260.06051637 148.12263227 260.05526955 157.08392556 260.05032361 166.04522336 C260.04008447 184.36349066 260.02269375 202.68174407 260 221 C252.58540058 221.02312883 245.17080889 221.04091785 237.75618076 221.05181217 C234.31359652 221.05703982 230.87103688 221.06413531 227.4284668 221.07543945 C223.47444957 221.08834235 219.52044244 221.09322918 215.56640625 221.09765625 C213.70394005 221.10539818 213.70394005 221.10539818 211.80384827 221.11329651 C210.66274094 221.11337204 209.52163361 221.11344757 208.34594727 221.11352539 C207.335569 221.115746 206.32519073 221.11796661 205.28419495 221.12025452 C203 221 203 221 202 220 C201.89212462 218.49491801 201.85317568 216.98483684 201.84178162 215.47593689 C201.82709839 214.00981209 201.82709839 214.00981209 201.81211853 212.5140686 C201.80636307 211.43297821 201.8006076 210.35188782 201.79467773 209.23803711 C201.78477814 208.1064769 201.77487854 206.97491669 201.76467896 205.80906677 C201.73295406 202.04851411 201.70826325 198.28794879 201.68359375 194.52734375 C201.6630337 191.92802085 201.6420375 189.32870136 201.62062073 186.72938538 C201.57096381 180.57414586 201.52572404 174.41888822 201.48259836 168.26359993 C201.43326803 161.25763291 201.37833436 154.25171339 201.32291877 147.24579227 C201.20902308 132.83057277 201.10220064 118.41530692 201 104 C200.65782031 104.57100182 200.31564062 105.14200363 199.96309185 105.73030853 C198.39392716 108.34839225 196.82428644 110.96619026 195.25463867 113.58398438 C194.71643242 114.48211853 194.17822617 115.38025269 193.62371063 116.30560303 C189.56842094 123.06773699 185.46260693 129.79559305 181.3125 136.5 C176.68674477 143.99181015 172.07405354 151.49046964 167.52626038 159.02987671 C165.72046273 162.02206764 163.90190491 165.00443602 162.04907227 167.96777344 C158.79880166 173.19014568 155.75035417 178.34285634 153.28125 183.98828125 C148.74366324 193.80771038 148.74366324 193.80771038 144 197 C134.69012923 200.20442169 124.29515785 200.29319893 115 197 C109.37494791 192.99299933 106.88203342 186.86075024 104.22607422 180.68115234 C102.24385106 176.34647 99.61696708 172.47178885 97 168.5 C95.99662609 166.91880259 94.99662565 165.33545948 94 163.75 C93.505 162.96625 93.01 162.1825 92.5 161.375 C91 159 89.5 156.625 88 154.25 C87.50467773 153.4657666 87.00935547 152.6815332 86.49902344 151.87353516 C85.5021806 150.29514655 84.50543531 148.71669634 83.50878906 147.13818359 C80.96129354 143.10367711 78.41194901 139.07035813 75.859375 135.0390625 C75.07820313 133.80446289 75.07820313 133.80446289 74.28125 132.54492188 C73.30794296 131.00674915 72.3340513 129.46894608 71.359375 127.93164062 C67.17916746 121.32287502 63.09955594 114.66177841 59 108 C58.67 145.29 58.34 182.58 58 221 C48.615625 221.020625 39.23125 221.04125 29.5625 221.0625 C26.59580322 221.071604 23.62910645 221.08070801 20.57250977 221.09008789 C18.23714239 221.0930068 15.90177451 221.09555542 13.56640625 221.09765625 C12.34078979 221.10277222 11.11517334 221.10788818 9.85241699 221.11315918 C8.69528198 221.11328003 7.53814697 221.11340088 6.34594727 221.11352539 C5.335569 221.115746 4.32519073 221.11796661 3.28419495 221.12025452 C1 221 1 221 0 220 C-0.09791944 217.16791027 -0.12992595 214.36020719 -0.12025452 211.5276947 C-0.12110894 210.62845876 -0.12196337 209.72922281 -0.12284368 208.8027373 C-0.12450125 205.7655258 -0.11897262 202.72836858 -0.11352539 199.69116211 C-0.11324355 197.5235545 -0.11340119 195.35594679 -0.1139679 193.18833923 C-0.114256 187.28361979 -0.10835717 181.37892048 -0.10139394 175.47420573 C-0.09516256 169.31089424 -0.09455677 163.14758234 -0.09336853 156.98426819 C-0.09025457 145.304111 -0.08204032 133.62396312 -0.07201904 121.94381005 C-0.06085989 108.65020774 -0.05534796 95.35660569 -0.05032361 82.06299961 C-0.03985776 54.70866123 -0.02225708 27.35433114 0 0 Z " fill="#2D2D2D" transform="translate(2267,209)"/>
<path d="M0 0 C19.531875 -0.061875 39.06375 -0.12375 59.1875 -0.1875 C65.3133667 -0.21481201 71.4392334 -0.24212402 77.75073242 -0.27026367 C85.33654785 -0.28381348 85.33654785 -0.28381348 88.90815735 -0.28633118 C91.35808455 -0.29088329 93.80800582 -0.30131824 96.25788879 -0.31672668 C135.10925846 -0.54847797 172.88696557 6.14174339 201.75 34.1875 C224.09922904 56.88257799 230.42662562 85.26479199 230.23348999 116.26576233 C229.98045999 139.57995982 222.29460663 162.13487125 207 180 C206.01773438 181.19882812 206.01773438 181.19882812 205.015625 182.421875 C180.50773919 211.22311307 144.86873859 218.01093845 109 221 C73.03 221 37.06 221 0 221 C0 148.07 0 75.14 0 0 Z M61 48 C61 88.92 61 129.84 61 172 C110.48996367 175.07088202 110.48996367 175.07088202 152.88671875 154.30859375 C165.62621426 140.39169569 168.71257912 123.34453336 168.31640625 105.08984375 C167.61651923 89.55469468 161.83099575 75.2468455 151 64 C147.82785879 61.36243267 144.53253865 59.12522083 141 57 C140.36578125 56.61199219 139.7315625 56.22398437 139.078125 55.82421875 C116.19773815 43.16178244 84.05884539 48 61 48 Z " fill="#2C2C2C" transform="translate(3114,209)"/>
<path d="M0 0 C57.75 0 115.5 0 175 0 C175 15.51 175 31.02 175 47 C137.38 47 99.76 47 61 47 C61 59.87 61 72.74 61 86 C94.33 86 127.66 86 162 86 C162 100.85 162 115.7 162 131 C128.67 131 95.34 131 61 131 C61 144.86 61 158.72 61 173 C99.94 173 138.88 173 179 173 C179 188.84 179 204.68 179 221 C155.80895243 221.02254488 132.61791368 221.04097792 109.42685795 221.05181217 C98.65964936 221.05697567 87.89244806 221.0640194 77.12524414 221.07543945 C67.74414755 221.08538464 58.36305623 221.09185303 48.98195451 221.09408849 C44.01149782 221.09539588 39.0410562 221.0984835 34.07060432 221.10573006 C29.39791878 221.11248767 24.72525459 221.11461749 20.05256462 221.11310768 C18.33238484 221.11338413 16.61220438 221.11539078 14.89202881 221.11920547 C12.55393339 221.1241387 10.21591996 221.12299968 7.87782288 221.12025452 C6.56611146 221.12117631 5.25440004 221.1220981 3.9029398 221.12304783 C1 221 1 221 0 220 C-0.09791944 217.16791027 -0.12992595 214.36020719 -0.12025452 211.5276947 C-0.12110894 210.62845876 -0.12196337 209.72922281 -0.12284368 208.8027373 C-0.12450125 205.7655258 -0.11897262 202.72836858 -0.11352539 199.69116211 C-0.11324355 197.5235545 -0.11340119 195.35594679 -0.1139679 193.18833923 C-0.114256 187.28361979 -0.10835717 181.37892048 -0.10139394 175.47420573 C-0.09516256 169.31089424 -0.09455677 163.14758234 -0.09336853 156.98426819 C-0.09025457 145.304111 -0.08204032 133.62396312 -0.07201904 121.94381005 C-0.05877523 106.16680366 -0.05335852 90.38979504 -0.04751682 74.61278439 C-0.03810047 49.74184928 -0.01818198 24.87093382 0 0 Z " fill="#2C2C2C" transform="translate(2738,209)"/>
<path d="M0 0 C20.13 0 40.26 0 61 0 C65.79718184 9.59436368 70.49132589 19.08290173 74.8125 28.875 C75.9382258 31.4083892 77.06687583 33.9404736 78.1953125 36.47265625 C78.49392685 37.14360825 78.7925412 37.81456024 79.10020447 38.50584412 C83.08872359 47.45968788 87.14215169 56.38423329 91.1875 65.3125 C97.16556573 78.51110498 103.1256205 91.71757509 109.06304932 104.93450928 C115.10038331 118.37341878 121.17472499 131.79415005 127.3125 145.1875 C133.75339493 159.243308 140.11803756 173.33053629 146.41357422 187.45214844 C147.80240353 190.55809912 149.19872402 193.66045966 150.59945679 196.76104736 C151.73580599 199.27822785 152.86772421 201.79738627 153.99890137 204.31689453 C154.79406418 206.08402905 155.59472218 207.84868762 156.39550781 209.61328125 C157.10658691 211.20076172 157.10658691 211.20076172 157.83203125 212.8203125 C158.25202393 213.75117676 158.6720166 214.68204102 159.10473633 215.64111328 C160 218 160 218 160 221 C140.2 221 120.4 221 100 221 C97.32110013 215.64220025 94.81261615 210.3744963 92.546875 204.8515625 C92.24179016 204.1129599 91.93670532 203.3743573 91.62237549 202.6133728 C90.98568621 201.06952497 90.35050689 199.5250536 89.71679688 197.97998047 C88.74314962 195.60831345 87.76248056 193.23963186 86.78125 190.87109375 C86.16103709 189.3647567 85.54123049 187.85825229 84.921875 186.3515625 C84.62819031 185.64327301 84.33450562 184.93498352 84.03192139 184.20523071 C82 179.22966367 82 179.22966367 82 177 C31.015 177.495 31.015 177.495 -21 178 C-28.425 195.82 -28.425 195.82 -36 214 C-36.99 216.31 -37.98 218.62 -39 221 C-58.47 221 -77.94 221 -98 221 C-98.33 220.34 -98.66 219.68 -99 219 C-98.02395594 216.51149098 -96.98078233 214.14101545 -95.8359375 211.73046875 C-95.49278 210.99147339 -95.1496225 210.25247803 -94.79606628 209.49108887 C-94.05253026 207.89199181 -93.30542645 206.29454998 -92.5552063 204.69857788 C-90.96219174 201.30918433 -89.38643657 197.91186757 -87.80976868 194.5148468 C-87.00960001 192.79120801 -86.20855883 191.06797401 -85.40666199 189.34513855 C-82.06125772 182.15392531 -78.79223852 174.93149922 -75.5625 167.6875 C-74.51569663 165.343718 -73.46881951 162.99996895 -72.421875 160.65625 C-72.15394638 160.05607056 -71.88601776 159.45589111 -71.60997009 158.83752441 C-67.86238214 150.44599701 -64.08551277 142.06761694 -60.3125 133.6875 C-59.5430336 131.97811617 -58.7735838 130.26872486 -58.00415039 128.55932617 C-56.44637754 125.09859298 -54.88850445 121.63790493 -53.33056641 118.17724609 C-49.92589795 110.61421751 -46.5225613 103.05058967 -43.11914062 95.48699951 C-41.99879097 92.99731325 -40.87831936 90.50768192 -39.7578125 88.01806641 C-36.3531018 80.45305041 -32.9490988 72.88771937 -29.54827881 65.32095337 C-19.75133602 43.5231055 -9.90381612 21.74955696 0 0 Z M30 55 C29.52804199 56.12978271 29.05608398 57.25956543 28.56982422 58.42358398 C26.33933378 63.76202346 24.10734743 69.09983683 21.875 74.4375 C21.47138245 75.40274597 21.06776489 76.36799194 20.6519165 77.36248779 C16.35309053 87.640619 12.0469578 97.91538109 7.6875 108.16796875 C7.35920197 108.94013229 7.03090393 109.71229584 6.69265747 110.50785828 C5.15354927 114.12564541 3.61141223 117.74211431 2.06591797 121.35717773 C1.52049514 122.63655059 0.97508423 123.91592852 0.4296875 125.1953125 C-0.04227051 126.29891113 -0.51422852 127.40250977 -1.00048828 128.53955078 C-2.06272704 130.71179256 -2.06272704 130.71179256 -2 132 C19.45 132 40.9 132 63 132 C57.92748885 119.31872213 52.82911464 106.66223413 47.5625 94.0625 C46.91072138 92.50032741 46.25894734 90.93815291 45.60717773 89.37597656 C40.80905855 77.88676438 35.94832819 66.42540818 31 55 C30.67 55 30.34 55 30 55 Z " fill="#2C2C2C" transform="translate(3602,209)"/>
<path d="M0 0 C20.46 0 40.92 0 62 0 C70.3125 18.375 70.3125 18.375 74.35687256 27.31585693 C78.18984509 35.78923762 82.02379554 44.26217405 85.859375 52.734375 C87.42720482 56.19786169 88.99489393 59.66141204 90.5625 63.125 C90.95326721 63.98833954 91.34403442 64.85167908 91.74664307 65.74118042 C97.20102431 77.79338645 102.63528474 89.85448838 108.05700684 101.92141724 C108.43006958 102.75172455 108.80313232 103.58203186 109.1875 104.4375 C109.55862915 105.26353729 109.9297583 106.08957458 110.31213379 106.94064331 C115.93043383 119.44171346 121.60494457 131.91604014 127.31521606 144.37533569 C132.32326627 155.30432586 137.27887353 166.25484485 142.1796875 177.23242188 C145.0703508 183.70562404 147.98083852 190.1688686 150.91796875 196.62109375 C151.57410684 198.06475553 152.23019454 199.50844022 152.88623047 200.95214844 C153.84255542 203.05655718 154.80008642 205.16036779 155.76177979 207.2623291 C156.64264036 209.18773607 157.51901227 211.11512836 158.39453125 213.04296875 C158.89831299 214.14664795 159.40209473 215.25032715 159.92114258 216.38745117 C161 219 161 219 161 221 C140.87 221 120.74 221 100 221 C93.8790918 206.71788086 87.7708476 192.42711899 82 178 C48.01 177.67 14.02 177.34 -21 177 C-21.99 179.97 -22.98 182.94 -24 186 C-25.08231885 188.77457049 -26.18070157 191.53092458 -27.3203125 194.28125 C-27.62444061 195.02080933 -27.92856873 195.76036865 -28.24191284 196.52233887 C-28.87741946 198.06562746 -29.51440464 199.608308 -30.15283203 201.15039062 C-31.13344896 203.52042009 -32.10803002 205.89287013 -33.08203125 208.265625 C-33.70277099 209.77097936 -34.32385211 211.27619301 -34.9453125 212.78125 C-35.23697296 213.49156372 -35.52863342 214.20187744 -35.82913208 214.93371582 C-37.88478044 219.88478044 -37.88478044 219.88478044 -39 221 C-40.84118029 221.09381302 -42.68597641 221.11743954 -44.52954102 221.11352539 C-45.71068985 221.11344986 -46.89183868 221.11337433 -48.10877991 221.11329651 C-49.3941716 221.10813522 -50.67956329 221.10297394 -52.00390625 221.09765625 C-53.9661338 221.09553383 -53.9661338 221.09553383 -55.96800232 221.09336853 C-59.45162859 221.0895441 -62.93521339 221.07971446 -66.41882324 221.06866455 C-69.97126708 221.05844882 -73.52371759 221.05387056 -77.07617188 221.04882812 C-84.05079832 221.03809212 -91.02539717 221.0210166 -98 221 C-97.30009296 217.25394608 -96.30545754 214.12120099 -94.7265625 210.64453125 C-94.24123047 209.56880859 -93.75589844 208.49308594 -93.25585938 207.38476562 C-92.71767578 206.20591797 -92.17949219 205.02707031 -91.625 203.8125 C-91.05224714 202.54774658 -90.4799967 201.28276553 -89.90820312 200.01757812 C-88.64253933 197.21954518 -87.37365971 194.4229995 -86.10253906 191.62744141 C-83.85116389 186.67502818 -81.60870565 181.71859965 -79.3671875 176.76171875 C-78.56226182 174.98184952 -77.75733013 173.201983 -76.95239258 171.42211914 C-76.34761581 170.08481247 -76.34761581 170.08481247 -75.73062134 168.7204895 C-74.49242499 165.98325421 -73.25351665 163.24634222 -72.0144043 160.50952148 C-66.9569311 149.33789164 -61.92059913 138.157245 -56.91088867 126.96411133 C-52.39089475 116.86613211 -47.85349271 106.77605065 -43.3125 96.6875 C-42.54434704 94.98063384 -41.77619927 93.27376534 -41.00805664 91.56689453 C-37.52435823 83.82644255 -34.03943016 76.08654789 -30.55128479 68.34809875 C-20.2963019 45.59653099 -10.11852933 22.8126843 0 0 Z M30 56 C25.03772128 67.7614176 20.0838044 79.52633501 15.13739014 91.29443359 C14.01538378 93.96340585 12.8927097 96.63209658 11.77001953 99.30078125 C10.00900107 103.48823958 8.25205253 107.67738469 6.49807739 111.86779785 C5.83288234 113.45547943 5.16643977 115.04263891 4.49874878 116.62927246 C3.56872812 118.84000259 2.64317198 121.0525491 1.71875 123.265625 C1.44140518 123.92220093 1.16406036 124.57877686 0.87831116 125.25524902 C-0.54122789 128.51694995 -0.54122789 128.51694995 -1 132 C20.12 132 41.24 132 63 132 C60.64314943 124.84486205 60.64314943 124.84486205 57.95043945 117.87353516 C57.57607254 116.97454498 57.20170563 116.07555481 56.81599426 115.14932251 C56.41909897 114.20543671 56.02220367 113.2615509 55.61328125 112.2890625 C54.98222725 110.77764175 54.98222725 110.77764175 54.33842468 109.23568726 C52.99946127 106.03085575 51.65604035 102.82791503 50.3125 99.625 C49.43004838 97.51444421 48.54788463 95.40376804 47.66601562 93.29296875 C42.46576272 80.85283518 37.23859364 68.42403045 32 56 C31.34 56 30.68 56 30 56 Z " fill="#2C2C2C" transform="translate(969,209)"/>
<path d="M0 0 C66.33 0 132.66 0 201 0 C201 15.84 201 31.68 201 48 C177.9 48 154.8 48 131 48 C131 105.09 131 162.18 131 221 C110.87 221 90.74 221 70 221 C70 163.91 70 106.82 70 48 C46.9 48 23.8 48 0 48 C0 32.16 0 16.32 0 0 Z " fill="#2C2C2C" transform="translate(1610,209)"/>
<path d="M0 0 C20.13 0 40.26 0 61 0 C61 57.09 61 114.18 61 173 C96.64 173 132.28 173 169 173 C169 188.84 169 204.68 169 221 C113.23 221 57.46 221 0 221 C0 148.07 0 75.14 0 0 Z " fill="#2D2D2D" transform="translate(1309,209)"/>
<path d="M0 0 C20.13 0 40.26 0 61 0 C61 72.93 61 145.86 61 221 C40.87 221 20.74 221 0 221 C0 148.07 0 75.14 0 0 Z " fill="#2D2D2D" transform="translate(1995,209)"/>
</svg>
