<?xml version="1.0" encoding="UTF-8"?>
<svg version="1.1" xmlns="http://www.w3.org/2000/svg" width="240" height="58">
<path d="M0 0 C2.9375 1.875 2.9375 1.875 5 5 C5.21388611 7.59599019 5.13043334 10.00562516 4.8828125 12.59765625 C5.02888612 15.5921655 6.03825972 16.79939497 8 19 C9.134375 18.731875 10.26875 18.46375 11.4375 18.1875 C16.91196027 17.44320844 20.58089785 20.04370249 25 23 C25 24.98 25 26.96 25 29 C27.64 29 30.28 29 33 29 C33.268125 28.21625 33.53625 27.4325 33.8125 26.625 C35 24 35 24 38 22 C44.86323268 21.34635879 44.86323268 21.34635879 48.5 23.4375 C50.73145407 27.24956737 50.90002172 30.69726459 50 35 C47.33120085 38.31578076 45.68392436 38.89008359 41.5 39.5625 C37.09356586 38.85432308 36.09529832 37.09529832 33 34 C30.27164366 33.27448202 27.84346159 33.14458279 25 33 C24.7215625 33.86625 24.7215625 33.86625 24.4375 34.75 C22.3494898 38.01818988 19.62296919 39.7923436 16 41 C13.90234375 40.88671875 13.90234375 40.88671875 11.8125 40.5 C8.10081159 39.64091376 8.10081159 39.64091376 5.5 41.3125 C3.81419628 44.33289834 3.87994765 45.61352323 4 49 C4.16666667 53.70833333 4.16666667 53.70833333 2.5 56.625 C-1.06241139 58.58432626 -4.02526545 58.64477213 -8 58 C-10.4375 57 -10.4375 57 -12 55 C-13.03332905 51.39482977 -13.38609138 48.22262271 -12.25 44.625 C-11 43 -11 43 -8 41 C-6.00909939 41.09480479 -4.01555738 41.19283644 -2.03515625 41.41796875 C0.24277889 41.13385098 0.24277889 41.13385098 2.2265625 38.9296875 C4.40024572 35.33880113 4.50443457 33.10975471 4.4375 28.9375 C4.43621094 27.72964844 4.43492188 26.52179687 4.43359375 25.27734375 C3.97562539 21.81576309 3.56532122 20.34200085 1 18 C-1.13608773 17.45281749 -1.13608773 17.45281749 -3.4375 17.5 C-6.53358721 17.2630031 -7.85133975 17.09064649 -10.5625 15.4375 C-12.60571182 11.97292344 -12.87005036 8.85417048 -12 5 C-8.64524049 0.12034981 -5.82662873 -1.04046942 0 0 Z M14 24 C13.731875 24.61875 13.46375 25.2375 13.1875 25.875 C12 28 12 28 9 30 C9.61875 30.0825 10.2375 30.165 10.875 30.25 C13 31 13 31 14.25 33.0625 C14.4975 33.701875 14.745 34.34125 15 35 C15.268125 34.38125 15.53625 33.7625 15.8125 33.125 C17 31 17 31 20 29 C19.38125 28.731875 18.7625 28.46375 18.125 28.1875 C16 27 16 27 14 24 Z M38 28 C38.33 29.65 38.66 31.3 39 33 C40.98 33.495 40.98 33.495 43 34 C45.2773501 31.18490007 45.2773501 31.18490007 45 28 C42.69 28 40.38 28 38 28 Z M-6 46 C-5 48 -5 48 -5 48 Z M-3 46 C-2 48 -2 48 -2 48 Z M-2 48 C-2.33 48.99 -2.66 49.98 -3 51 C-3.99 51.66 -4.98 52.32 -6 53 C-4.35 52.67 -2.7 52.34 -1 52 C-1.33 50.68 -1.66 49.36 -2 48 Z M-8 50 C-8 50.66 -8 51.32 -8 52 C-7.34 51.67 -6.68 51.34 -6 51 C-6.66 50.67 -7.32 50.34 -8 50 Z " fill="#323230" transform="translate(22,0)"/>
<path d="M0 0 C4.34888616 0 8.4482357 0.0347991 12.75 0.5625 C16.1579891 0.94006147 18.43449739 0.92291175 21.875 0.3125 C25 0 25 0 27.1796875 1.40234375 C29.87963126 5.25526778 29.43612599 8.66843727 29.25 13.25 C29.23195312 14.09046875 29.21390625 14.9309375 29.1953125 15.796875 C29.14830798 17.86507395 29.07656724 19.93268441 29 22 C27.02 22 25.04 22 23 22 C23 16.72 23 11.44 23 6 C21.35 6 19.7 6 18 6 C17.67 11.28 17.34 16.56 17 22 C15.35 22 13.7 22 12 22 C11.67 17.05 11.34 12.1 11 7 C9.68 7 8.36 7 7 7 C6.93941406 7.99902344 6.87882813 8.99804688 6.81640625 10.02734375 C6.73261719 11.31769531 6.64882812 12.60804687 6.5625 13.9375 C6.48128906 15.22527344 6.40007812 16.51304688 6.31640625 17.83984375 C6 21 6 21 5 22 C3.35 22 1.7 22 0 22 C0 14.74 0 7.48 0 0 Z " fill="#333230" transform="translate(143,21)"/>
<path d="M0 0 C2.64 0 5.28 0 8 0 C9.50776616 4.10135565 11.00487576 8.20652067 12.5 12.3125 C12.92925781 13.47974609 13.35851562 14.64699219 13.80078125 15.84960938 C14.20683594 16.96787109 14.61289063 18.08613281 15.03125 19.23828125 C15.40830078 20.26993408 15.78535156 21.30158691 16.17382812 22.36450195 C17 25 17 25 17 28 C15.02 28 13.04 28 11 28 C9.5393715 25.35261084 9 24.10551666 9 21 C5.7 21 2.4 21 -1 21 C-1.144375 21.969375 -1.28875 22.93875 -1.4375 23.9375 C-2 27 -2 27 -3 28 C-4.66617115 28.04063832 -6.33388095 28.042721 -8 28 C-9 26 -9 26 -8.28735352 23.38623047 C-7.90506592 22.30744629 -7.52277832 21.22866211 -7.12890625 20.1171875 C-6.51499023 18.36728516 -6.51499023 18.36728516 -5.88867188 16.58203125 C-5.45103516 15.35871094 -5.01339844 14.13539062 -4.5625 12.875 C-4.12873047 11.64394531 -3.69496094 10.41289062 -3.24804688 9.14453125 C-2.17205477 6.09391626 -1.08910366 3.04595357 0 0 Z M3 9 C2.34 11.31 1.68 13.62 1 16 C2.98 16 4.96 16 7 16 C6.34 13.69 5.68 11.38 5 9 C4.34 9 3.68 9 3 9 Z " fill="#333130" transform="translate(91,15)"/>
<path d="M0 0 C1.98 0 3.96 0 6 0 C6 9.24 6 18.48 6 28 C3.33333333 28 0.66666667 28 -2 28 C-2.94875 28.103125 -3.8975 28.20625 -4.875 28.3125 C-8 28 -8 28 -10.8125 26.0625 C-13.66006881 22.07590366 -14.30807482 18.86073608 -14 14 C-12.50831386 9.89786311 -11.64397687 8.42931791 -8 6 C-4.3125 6.375 -4.3125 6.375 -1 7 C-0.67 4.69 -0.34 2.38 0 0 Z M-5 11 C-6.7089129 12.5787681 -6.7089129 12.5787681 -8 15 C-7.77131906 18.68815293 -7.77131906 18.68815293 -7 22 C-5.35 22.33 -3.7 22.66 -2 23 C-0.24471981 20.8552976 -0.24471981 20.8552976 1 18 C0.6039603 14.72757736 0.6039603 14.72757736 -1 12 C-3.03243548 11.03122943 -3.03243548 11.03122943 -5 11 Z " fill="#333230" transform="translate(210,15)"/>
<path d="M0 0 C2.76142665 1.01736771 3.68085371 1.36170741 5 4 C5.08308638 5.37548156 5.10736016 6.75485796 5.09765625 8.1328125 C5.09443359 8.93847656 5.09121094 9.74414062 5.08789062 10.57421875 C5.07951172 11.41597656 5.07113281 12.25773437 5.0625 13.125 C5.05798828 13.97449219 5.05347656 14.82398438 5.04882812 15.69921875 C5.03702874 17.79950909 5.01909306 19.8997633 5 22 C2.66666667 22 0.33333333 22 -2 22 C-3.670625 22.12375 -3.670625 22.12375 -5.375 22.25 C-9 22 -9 22 -11.5 20.4375 C-13 18 -13 18 -12.9375 14.375 C-12 11 -12 11 -9 9 C-6.35982365 8.18220159 -3.69729409 7.6190511 -1 7 C-2.84725052 6.30840599 -2.84725052 6.30840599 -5 6 C-5.99 6.66 -6.98 7.32 -8 8 C-10.1875 7.625 -10.1875 7.625 -12 7 C-11.64393309 4.41851492 -11.16671807 3.17954253 -9.375 1.25 C-6.09017113 -0.4788573 -3.66355972 -0.32710355 0 0 Z M-7 14 C-7 14.99 -7 15.98 -7 17 C-5.35 17 -3.7 17 -2 17 C-1.34 15.35 -0.68 13.7 0 12 C-2.35287614 12 -4.79373224 13.24893012 -7 14 Z " fill="#33312F" transform="translate(232,21)"/>
<path d="M0 0 C3.375 2 3.375 2 6 5 C6.50687865 7.85647239 6.29795219 10.07013677 6 13 C1.71 13 -2.58 13 -7 13 C-6.01 14.485 -6.01 14.485 -5 16 C0.445 15.505 0.445 15.505 6 15 C5 19 5 19 3.4375 20.75 C-0.01829953 22.52220489 -3.24078214 22.6936652 -7 22 C-9.8100346 20.20636089 -11.50940468 18.98119065 -13 16 C-13.52778794 11.11147238 -13.73000486 7.2334565 -11.1875 2.9375 C-7.69269457 -0.1578991 -4.54059437 -0.53418757 0 0 Z M-5 5 C-5.66 6.32 -6.32 7.64 -7 9 C-4.36 9 -1.72 9 1 9 C0.67 8.01 0.34 7.02 0 6 C-1.65 5.67 -3.3 5.34 -5 5 Z " fill="#33322F" transform="translate(188,21)"/>
<path d="M0 0 C1.98 0 3.96 0 6 0 C6 1.32 6 2.64 6 4 C7.32 4.33 8.64 4.66 10 5 C10 6.32 10 7.64 10 9 C8.68 9 7.36 9 6 9 C6 12.96 6 16.92 6 21 C7.32 21.33 8.64 21.66 10 22 C10 23.32 10 24.64 10 26 C6.88776587 26.21219778 4.64960815 26.31552396 1.8125 24.9375 C0 23 0 23 -0.390625 19.64453125 C-0.34421875 18.37996094 -0.2978125 17.11539063 -0.25 15.8125 C-0.21390625 14.54019531 -0.1778125 13.26789062 -0.140625 11.95703125 C-0.09421875 10.98121094 -0.0478125 10.00539063 0 9 C-0.99 9 -1.98 9 -3 9 C-3 7.35 -3 5.7 -3 4 C-2.01 4 -1.02 4 0 4 C0 2.68 0 1.36 0 0 Z " fill="#343230" transform="translate(121,17)"/>
<path d="M0 0 C1.98 0 3.96 0 6 0 C6 9.24 6 18.48 6 28 C4.02 28 2.04 28 0 28 C0 18.76 0 9.52 0 0 Z " fill="#333230" transform="translate(110,15)"/>
<path d="M0 0 C1.65 0 3.3 0 5 0 C5 7.26 5 14.52 5 22 C3.35 22 1.7 22 0 22 C-1.58937556 20.41062444 -1.12981143 18.76100154 -1.1328125 16.5625 C-1.13410156 15.66789062 -1.13539063 14.77328125 -1.13671875 13.8515625 C-1.13091797 12.44003906 -1.13091797 12.44003906 -1.125 11 C-1.12886719 10.05898438 -1.13273438 9.11796875 -1.13671875 8.1484375 C-1.13542969 7.25382812 -1.13414062 6.35921875 -1.1328125 5.4375 C-1.13112061 4.19806641 -1.13112061 4.19806641 -1.12939453 2.93359375 C-1 1 -1 1 0 0 Z " fill="#33322F" transform="translate(134,21)"/>
<path d="M0 0 C1.65 0 3.3 0 5 0 C5 1.65 5 3.3 5 5 C1.25 6.125 1.25 6.125 -1 5 C-0.67 3.35 -0.34 1.7 0 0 Z " fill="#313130" transform="translate(134,14)"/>
<path d="M0 0 C0.66 0.33 1.32 0.66 2 1 C1.1875 2.9375 1.1875 2.9375 0 5 C-0.99 5.33 -1.98 5.66 -3 6 C-3 4.68 -3 3.36 -3 2 C-2.01 1.34 -1.02 0.68 0 0 Z " fill="#2B2B2A" transform="translate(202,21)"/>
</svg>
