<svg width="162" height="15" viewBox="0 0 162 15" fill="none" xmlns="http://www.w3.org/2000/svg">
<path d="M1.53658 12V3.27273H4.8093C5.47976 3.27273 6.04226 3.39773 6.4968 3.64773C6.95419 3.89773 7.29936 4.24148 7.53232 4.67898C7.76811 5.11364 7.88601 5.60795 7.88601 6.16193C7.88601 6.72159 7.76811 7.21875 7.53232 7.65341C7.29652 8.08807 6.94851 8.4304 6.48828 8.6804C6.02805 8.92756 5.46129 9.05114 4.788 9.05114H2.61896V7.75142H4.57493C4.96697 7.75142 5.288 7.68324 5.538 7.54688C5.788 7.41051 5.97266 7.22301 6.09197 6.98438C6.21413 6.74574 6.27521 6.47159 6.27521 6.16193C6.27521 5.85227 6.21413 5.57955 6.09197 5.34375C5.97266 5.10795 5.78658 4.92472 5.53374 4.79403C5.28374 4.66051 4.96129 4.59375 4.56641 4.59375H3.11754V12H1.53658ZM11.9524 12.1278C11.3132 12.1278 10.7592 11.9872 10.2905 11.706C9.82173 11.4247 9.4581 11.0312 9.19957 10.5256C8.94389 10.0199 8.81605 9.42898 8.81605 8.75284C8.81605 8.0767 8.94389 7.48437 9.19957 6.97585C9.4581 6.46733 9.82173 6.07244 10.2905 5.79119C10.7592 5.50994 11.3132 5.36932 11.9524 5.36932C12.5916 5.36932 13.1456 5.50994 13.6143 5.79119C14.0831 6.07244 14.4453 6.46733 14.701 6.97585C14.9595 7.48437 15.0888 8.0767 15.0888 8.75284C15.0888 9.42898 14.9595 10.0199 14.701 10.5256C14.4453 11.0312 14.0831 11.4247 13.6143 11.706C13.1456 11.9872 12.5916 12.1278 11.9524 12.1278ZM11.9609 10.892C12.3075 10.892 12.5973 10.7969 12.8303 10.6065C13.0632 10.4134 13.2365 10.1548 13.3501 9.83097C13.4666 9.5071 13.5249 9.14631 13.5249 8.74858C13.5249 8.34801 13.4666 7.9858 13.3501 7.66193C13.2365 7.33523 13.0632 7.07528 12.8303 6.8821C12.5973 6.68892 12.3075 6.59233 11.9609 6.59233C11.6058 6.59233 11.3104 6.68892 11.0746 6.8821C10.8416 7.07528 10.6669 7.33523 10.5504 7.66193C10.4368 7.9858 10.38 8.34801 10.38 8.74858C10.38 9.14631 10.4368 9.5071 10.5504 9.83097C10.6669 10.1548 10.8416 10.4134 11.0746 10.6065C11.3104 10.7969 11.6058 10.892 11.9609 10.892ZM17.5614 12L15.712 5.45455H17.2844L18.435 10.0568H18.4947L19.6708 5.45455H21.2262L22.4023 10.0312H22.4663L23.5998 5.45455H25.1765L23.3228 12H21.7163L20.489 7.5767H20.3995L19.1722 12H17.5614ZM28.9638 12.1278C28.3075 12.1278 27.7408 11.9915 27.2635 11.7188C26.7891 11.4432 26.424 11.054 26.1683 10.5511C25.9126 10.0455 25.7848 9.45028 25.7848 8.76562C25.7848 8.09233 25.9126 7.50142 26.1683 6.9929C26.4268 6.48153 26.7876 6.08381 27.2507 5.79972C27.7138 5.51278 28.2578 5.36932 28.8828 5.36932C29.2862 5.36932 29.6669 5.43466 30.0249 5.56534C30.3857 5.69318 30.7038 5.89205 30.9794 6.16193C31.2578 6.43182 31.4766 6.77557 31.6357 7.19318C31.7947 7.60795 31.8743 8.10227 31.8743 8.67614V9.14915H26.5092V8.10938H30.3956C30.3928 7.81392 30.3288 7.55114 30.2038 7.32102C30.0788 7.08807 29.9041 6.90483 29.6797 6.77131C29.4581 6.63778 29.1996 6.57102 28.9041 6.57102C28.5888 6.57102 28.3118 6.64773 28.0732 6.80114C27.8345 6.9517 27.6484 7.15057 27.5149 7.39773C27.3842 7.64205 27.3175 7.91051 27.3146 8.20312V9.1108C27.3146 9.49148 27.3842 9.81818 27.5234 10.0909C27.6626 10.3608 27.8572 10.5682 28.1072 10.7131C28.3572 10.8551 28.6499 10.9261 28.9851 10.9261C29.2095 10.9261 29.4126 10.8949 29.5945 10.8324C29.7763 10.767 29.9339 10.6719 30.0675 10.5469C30.201 10.4219 30.3018 10.267 30.37 10.0824L31.8104 10.2443C31.7195 10.625 31.5462 10.9574 31.2905 11.2415C31.0376 11.5227 30.7138 11.7415 30.3189 11.8977C29.924 12.0511 29.4723 12.1278 28.9638 12.1278ZM33.1793 12V5.45455H34.6751V6.54545H34.7433C34.8626 6.16761 35.0671 5.87642 35.3569 5.67188C35.6495 5.46449 35.9833 5.3608 36.3583 5.3608C36.4435 5.3608 36.5387 5.36506 36.6438 5.37358C36.7518 5.37926 36.8413 5.3892 36.9123 5.40341V6.82244C36.8469 6.79972 36.7433 6.77983 36.6012 6.76278C36.462 6.7429 36.3271 6.73295 36.1964 6.73295C35.9151 6.73295 35.6623 6.79403 35.4379 6.91619C35.2163 7.03551 35.0415 7.2017 34.9137 7.41477C34.7859 7.62784 34.7219 7.87358 34.7219 8.15199V12H33.1793ZM40.5653 12.1278C39.9091 12.1278 39.3423 11.9915 38.8651 11.7188C38.3906 11.4432 38.0256 11.054 37.7699 10.5511C37.5142 10.0455 37.3864 9.45028 37.3864 8.76562C37.3864 8.09233 37.5142 7.50142 37.7699 6.9929C38.0284 6.48153 38.3892 6.08381 38.8523 5.79972C39.3153 5.51278 39.8594 5.36932 40.4844 5.36932C40.8878 5.36932 41.2685 5.43466 41.6264 5.56534C41.9872 5.69318 42.3054 5.89205 42.581 6.16193C42.8594 6.43182 43.0781 6.77557 43.2372 7.19318C43.3963 7.60795 43.4759 8.10227 43.4759 8.67614V9.14915H38.1108V8.10938H41.9972C41.9943 7.81392 41.9304 7.55114 41.8054 7.32102C41.6804 7.08807 41.5057 6.90483 41.2812 6.77131C41.0597 6.63778 40.8011 6.57102 40.5057 6.57102C40.1903 6.57102 39.9134 6.64773 39.6747 6.80114C39.4361 6.9517 39.25 7.15057 39.1165 7.39773C38.9858 7.64205 38.919 7.91051 38.9162 8.20312V9.1108C38.9162 9.49148 38.9858 9.81818 39.125 10.0909C39.2642 10.3608 39.4588 10.5682 39.7088 10.7131C39.9588 10.8551 40.2514 10.9261 40.5866 10.9261C40.8111 10.9261 41.0142 10.8949 41.196 10.8324C41.3778 10.767 41.5355 10.6719 41.669 10.5469C41.8026 10.4219 41.9034 10.267 41.9716 10.0824L43.4119 10.2443C43.321 10.625 43.1477 10.9574 42.892 11.2415C42.6392 11.5227 42.3153 11.7415 41.9205 11.8977C41.5256 12.0511 41.0739 12.1278 40.5653 12.1278ZM47.2099 12.1151C46.6957 12.1151 46.2354 11.983 45.8292 11.7188C45.4229 11.4545 45.1019 11.071 44.8661 10.5682C44.6303 10.0653 44.5124 9.45455 44.5124 8.7358C44.5124 8.00852 44.6317 7.39489 44.8704 6.89489C45.1119 6.39205 45.4371 6.01278 45.8462 5.7571C46.2553 5.49858 46.7113 5.36932 47.2141 5.36932C47.5977 5.36932 47.913 5.43466 48.1602 5.56534C48.4073 5.69318 48.6033 5.84801 48.7482 6.02983C48.8931 6.20881 49.0053 6.37784 49.0849 6.53693H49.1488V3.27273H50.6957V12H49.1786V10.9688H49.0849C49.0053 11.1278 48.8903 11.2969 48.7397 11.4759C48.5891 11.652 48.3903 11.8026 48.1431 11.9276C47.896 12.0526 47.5849 12.1151 47.2099 12.1151ZM47.6403 10.8494C47.967 10.8494 48.2454 10.7614 48.4755 10.5852C48.7056 10.4062 48.8803 10.1577 48.9996 9.83949C49.119 9.52131 49.1786 9.15057 49.1786 8.72727C49.1786 8.30398 49.119 7.93608 48.9996 7.62358C48.8832 7.31108 48.7099 7.06818 48.4798 6.89489C48.2525 6.72159 47.9727 6.63494 47.6403 6.63494C47.2965 6.63494 47.0096 6.72443 46.7795 6.90341C46.5494 7.08239 46.3761 7.32955 46.2596 7.64489C46.1431 7.96023 46.0849 8.32102 46.0849 8.72727C46.0849 9.13636 46.1431 9.50142 46.2596 9.82244C46.3789 10.1406 46.5536 10.392 46.7837 10.5767C47.0167 10.7585 47.3022 10.8494 47.6403 10.8494ZM55.3842 12V3.27273H58.7251C59.3558 3.27273 59.88 3.37216 60.2976 3.57102C60.718 3.76705 61.032 4.03551 61.2393 4.37642C61.4496 4.71733 61.5547 5.10369 61.5547 5.53551C61.5547 5.89062 61.4865 6.1946 61.3501 6.44744C61.2138 6.69744 61.0305 6.90057 60.8004 7.05682C60.5703 7.21307 60.3132 7.32528 60.0291 7.39347V7.47869C60.3388 7.49574 60.6357 7.59091 60.9197 7.7642C61.2067 7.93466 61.4411 8.17614 61.6229 8.48864C61.8047 8.80114 61.8956 9.17898 61.8956 9.62216C61.8956 10.0739 61.7862 10.4801 61.5675 10.8409C61.3487 11.1989 61.0192 11.4815 60.5788 11.6889C60.1385 11.8963 59.5845 12 58.9169 12H55.3842ZM56.9652 10.679H58.6655C59.2393 10.679 59.6527 10.5696 59.9055 10.3509C60.1612 10.1293 60.2891 9.84517 60.2891 9.49858C60.2891 9.24006 60.2251 9.0071 60.0973 8.79972C59.9695 8.58949 59.7876 8.42472 59.5518 8.3054C59.3161 8.18324 59.0348 8.12216 58.7081 8.12216H56.9652V10.679ZM56.9652 6.98438H58.5291C58.8018 6.98438 59.0476 6.93466 59.2663 6.83523C59.4851 6.73295 59.657 6.58949 59.782 6.40483C59.9098 6.21733 59.9737 5.99574 59.9737 5.74006C59.9737 5.40199 59.8544 5.12358 59.6158 4.90483C59.38 4.68608 59.0291 4.5767 58.5632 4.5767H56.9652V6.98438ZM64.1616 14.4545C63.9513 14.4545 63.7567 14.4375 63.5778 14.4034C63.4016 14.3722 63.261 14.3352 63.1559 14.2926L63.5138 13.0909C63.7383 13.1563 63.9386 13.1875 64.1147 13.1847C64.2908 13.1818 64.4457 13.1264 64.5792 13.0185C64.7156 12.9134 64.8306 12.7372 64.9244 12.4901L65.0565 12.1364L62.6829 5.45455H64.3192L65.8278 10.3977H65.896L67.4087 5.45455H69.0494L66.4286 12.7926C66.3065 13.1392 66.1445 13.4361 65.9428 13.6832C65.7411 13.9332 65.494 14.1236 65.2013 14.2543C64.9116 14.3878 64.565 14.4545 64.1616 14.4545Z" fill="#204859"/>
<g clip-path="url(#clip0_2191_63923)">
<path d="M81.1268 11.1346C81.0597 11.1346 80.9926 11.106 80.9416 11.0492C80.8391 10.9352 80.8391 10.7504 80.9416 10.6365L84.3741 6.81597C84.4765 6.70197 84.6425 6.70197 84.7449 6.81597C84.8473 6.92997 84.8473 7.11468 84.7449 7.22868L81.3124 11.0492C81.261 11.106 81.1939 11.1346 81.1268 11.1346Z" fill="#204859"/>
<path d="M77.6946 14.0001C77.6544 14.0001 77.6143 13.9899 77.5774 13.9692L74.1449 12.0593C74.0562 12.0098 74 11.9088 74 11.7982V3.20222C74 3.09162 74.0562 2.99063 74.1449 2.94113L77.5774 1.03089C77.7068 0.958754 77.8643 1.01731 77.9292 1.16129C77.994 1.30556 77.9413 1.48066 77.812 1.55279L74.5243 3.38241V11.6177L77.4323 13.236V5.11246C77.4323 4.95123 77.5497 4.82054 77.6946 4.82054C77.8394 4.82054 77.9569 4.95123 77.9569 5.11246V13.7084C77.9569 13.8097 77.9098 13.9036 77.8326 13.9568C77.7904 13.9856 77.7426 14.0001 77.6946 14.0001Z" fill="#204859"/>
<path d="M84.5595 7.31429C84.4146 7.31429 84.2972 7.18361 84.2972 7.02237V1.58385H77.6944C77.5495 1.58385 77.4321 1.45316 77.4321 1.29193C77.4321 1.13069 77.5498 1 77.6947 1H84.5597C84.7046 1 84.822 1.13069 84.822 1.29193V7.02265C84.8218 7.18361 84.7044 7.31429 84.5595 7.31429Z" fill="#204859"/>
<path d="M81.1273 11.135C81.0879 11.135 81.0477 11.1251 81.0101 11.1041L77.5776 9.19388C77.5021 9.15202 77.4495 9.07225 77.436 8.97947C77.4225 8.88668 77.4497 8.79277 77.5095 8.7263L80.942 4.90581C81.0444 4.79181 81.2104 4.79181 81.3128 4.90581C81.4152 5.01981 81.4152 5.20452 81.3128 5.31852L78.1375 8.85302L81.2447 10.5822C81.3743 10.6544 81.4267 10.8297 81.3618 10.9737C81.3158 11.0758 81.2233 11.135 81.1273 11.135Z" fill="#204859"/>
<path d="M81.1272 5.40416H77.6949C77.55 5.40416 77.4326 5.27348 77.4326 5.11224C77.4326 4.951 77.55 4.82031 77.6949 4.82031H81.1274C81.2723 4.82031 81.3897 4.951 81.3897 5.11224C81.3895 5.27348 81.2721 5.40416 81.1272 5.40416Z" fill="#204859"/>
<path d="M81.1268 5.40412C81.0597 5.40412 80.9926 5.37555 80.9416 5.31869C80.8391 5.2047 80.8391 5.01998 80.9416 4.90598L84.3741 1.0855C84.4765 0.971501 84.6425 0.971501 84.7449 1.0855C84.8473 1.1995 84.8473 1.38421 84.7449 1.49821L81.3124 5.31869C81.261 5.37583 81.1939 5.40412 81.1268 5.40412Z" fill="#204859"/>
<path d="M90.9585 11.4541V3.51758H94.3044C94.681 3.51758 95.0216 3.58745 95.3268 3.72719C95.6318 3.86693 95.8918 4.05673 96.1073 4.29633C96.3226 4.53592 96.4885 4.81879 96.6049 5.14495C96.7216 5.4711 96.78 5.82384 96.78 6.20318C96.78 6.576 96.7173 6.92535 96.5915 7.2515C96.4662 7.57766 96.2941 7.86392 96.0758 8.11002C95.8577 8.35641 95.6003 8.54933 95.3047 8.68935C95.0086 8.82909 94.6932 8.89896 94.3585 8.89896H92.7795V11.4547H90.9585V11.4541ZM92.7795 7.4911H94.1249C94.2627 7.4911 94.3865 7.45093 94.4973 7.37116C94.6081 7.29139 94.7034 7.18984 94.7842 7.0665C94.865 6.94345 94.926 6.8057 94.968 6.65238C95.0099 6.49934 95.031 6.34942 95.031 6.20318C95.031 6.05693 95.004 5.9087 94.9502 5.75906C94.8963 5.60914 94.8244 5.47449 94.7349 5.35484C94.6452 5.2349 94.5423 5.13703 94.4253 5.06037C94.3087 4.98399 94.1877 4.94552 94.0622 4.94552H92.7795V7.4911Z" fill="#204859"/>
<path d="M103.973 11.4541H101.905L100.392 8.88849H99.3629V11.4541H97.4883V3.51758H100.936C101.324 3.51758 101.678 3.58745 101.997 3.72719C102.317 3.86693 102.59 4.05673 102.817 4.29633C103.044 4.53592 103.219 4.81879 103.341 5.14495C103.463 5.4711 103.525 5.82384 103.525 6.20318C103.525 6.74233 103.394 7.22661 103.135 7.65573C102.876 8.08513 102.531 8.40959 102.102 8.6291L103.973 11.4541ZM99.3629 7.4911H100.753C100.897 7.4911 101.027 7.45093 101.143 7.37116C101.26 7.29139 101.361 7.18984 101.444 7.0665C101.528 6.94345 101.592 6.8057 101.637 6.65238C101.682 6.49934 101.704 6.34942 101.704 6.20318C101.704 6.05693 101.677 5.9087 101.624 5.75906C101.57 5.60914 101.495 5.47449 101.399 5.35484C101.304 5.2349 101.194 5.13703 101.072 5.06037C100.949 4.98399 100.819 4.94552 100.682 4.94552H99.3631L99.3629 7.4911Z" fill="#204859"/>
<path d="M107.507 3.46777C108.075 3.46777 108.583 3.57413 109.032 3.78714C109.48 4.00042 109.86 4.28811 110.171 4.65047C110.482 5.01339 110.72 5.43912 110.884 5.9282C111.049 6.41757 111.131 6.94146 111.131 7.5007C111.131 8.10633 111.041 8.65708 110.862 9.15296C110.683 9.64883 110.433 10.0731 110.113 10.4259C109.793 10.7786 109.412 11.0516 108.969 11.2445C108.527 11.4377 108.039 11.5339 107.507 11.5339C106.909 11.5339 106.385 11.4275 105.933 11.2145C105.482 11.0015 105.104 10.7136 104.799 10.3509C104.494 9.98828 104.265 9.56228 104.113 9.07319C103.96 8.5841 103.884 8.05994 103.884 7.5007C103.884 6.94146 103.968 6.41757 104.135 5.9282C104.302 5.43912 104.543 5.01339 104.857 4.65047C105.171 4.28782 105.552 4.00014 106.001 3.78714C106.449 3.57413 106.951 3.46777 107.507 3.46777ZM107.507 9.97668C107.782 9.97668 108.03 9.91672 108.251 9.79706C108.472 9.67712 108.658 9.50909 108.807 9.2927C108.957 9.07658 109.072 8.81549 109.153 8.50914C109.234 8.20307 109.274 7.86362 109.274 7.4908C109.274 7.14456 109.239 6.8218 109.171 6.52252C109.102 6.22296 108.996 5.95989 108.852 5.73387C108.709 5.50757 108.526 5.32964 108.305 5.19981C108.084 5.06997 107.818 5.00491 107.507 5.00491C107.196 5.00491 106.928 5.07138 106.704 5.20461C106.48 5.33785 106.296 5.51578 106.152 5.73868C106.009 5.96158 105.903 6.22466 105.834 6.52733C105.765 6.83029 105.731 7.15135 105.731 7.4908C105.731 7.82996 105.767 8.1513 105.838 8.45426C105.91 8.75722 106.018 9.0217 106.161 9.24772C106.305 9.4743 106.489 9.65195 106.713 9.78207C106.938 9.91191 107.202 9.97668 107.507 9.97668Z" fill="#204859"/>
<path d="M111.472 9.30771C111.562 9.38125 111.65 9.45254 111.736 9.52241C111.823 9.59228 111.92 9.65394 112.028 9.70713C112.136 9.76031 112.258 9.80528 112.396 9.84205C112.533 9.87855 112.698 9.89693 112.889 9.89693C113.194 9.89693 113.432 9.82706 113.602 9.68732C113.773 9.54758 113.897 9.36287 113.975 9.13318C114.052 8.90348 114.098 8.64409 114.113 8.35443C114.128 8.06505 114.136 7.76718 114.136 7.46111V3.51758H115.885V7.89023C115.885 8.44296 115.841 8.94365 115.755 9.39285C115.668 9.84206 115.52 10.2248 115.311 10.5408C115.101 10.857 114.825 11.1017 114.481 11.2745C114.137 11.4476 113.705 11.5342 113.185 11.5342C112.975 11.5342 112.763 11.5076 112.548 11.4544C112.333 11.4013 112.128 11.3345 111.934 11.2547C111.739 11.175 111.56 11.0867 111.396 10.9902C111.231 10.8938 111.092 10.799 110.979 10.7057L111.472 9.30771Z" fill="#204859"/>
<path d="M118.935 6.71235H121.832V8.24976H118.935V9.9371H122.325V11.4544H117.703H117.114V3.51758H122.325V5.02501H118.935V6.71235Z" fill="#204859"/>
<path d="M129.94 8.46926C129.862 8.90856 129.737 9.31646 129.563 9.6924C129.39 10.0686 129.163 10.3931 128.882 10.6658C128.601 10.939 128.261 11.1517 127.864 11.3048C127.466 11.4578 127.001 11.5345 126.469 11.5345C125.99 11.5345 125.537 11.4496 125.11 11.2799C124.682 11.1102 124.307 10.8573 123.984 10.5212C123.661 10.1852 123.405 9.76765 123.217 9.26838C123.029 8.7691 122.935 8.19035 122.935 7.53125C122.935 6.97229 123.017 6.44813 123.181 5.95876C123.346 5.46967 123.583 5.04367 123.894 4.68102C124.205 4.31838 124.58 4.03041 125.02 3.81769C125.46 3.60469 125.957 3.49805 126.514 3.49805C126.986 3.49805 127.418 3.56961 127.81 3.71275C128.201 3.85588 128.542 4.05729 128.832 4.31668C129.122 4.57636 129.361 4.89261 129.55 5.26516C129.738 5.63798 129.865 6.05381 129.931 6.51319L128.353 6.7129C128.304 6.47331 128.236 6.2504 128.146 6.0439C128.056 5.83769 127.943 5.65948 127.805 5.50984C127.667 5.35992 127.502 5.24366 127.307 5.16021C127.113 5.07704 126.89 5.03546 126.639 5.03546C126.292 5.03546 126.007 5.11382 125.783 5.26996C125.558 5.42639 125.381 5.6244 125.249 5.864C125.117 6.10359 125.026 6.37006 124.976 6.66283C124.925 6.95561 124.899 7.23848 124.899 7.51145C124.899 8.29671 125.054 8.90404 125.366 9.33344C125.677 9.76256 126.095 9.97726 126.622 9.97726C127.082 9.97726 127.454 9.8361 127.738 9.55295C128.022 9.27007 128.224 8.86585 128.343 8.33999L129.94 8.46926Z" fill="#204859"/>
<path d="M136.533 5.01511H134.264V11.4544H132.443V5.01511H130.183V3.51758H136.533V5.01511Z" fill="#204859"/>
<path d="M138.075 4.3761V7.03171H141.34V7.89023H138.075V10.5959H141.833V11.4544H137.08V3.51758H141.833V4.3761H138.075Z" fill="#204859"/>
<path d="M143.17 11.4541V3.51758H145.753C146.238 3.51758 146.695 3.61404 147.126 3.80696C147.556 4.00016 147.931 4.27115 148.251 4.62078C148.571 4.97013 148.826 5.38624 149.014 5.86882C149.202 6.3514 149.296 6.88547 149.296 7.47101C149.296 8.05684 149.201 8.59402 149.01 9.08339C148.818 9.57248 148.561 9.9917 148.238 10.3413C147.915 10.6907 147.54 10.9636 147.112 11.16C146.685 11.3566 146.232 11.4544 145.753 11.4544H143.17V11.4541ZM148.318 7.46592C148.318 7.01955 148.255 6.60768 148.13 6.23118C148.004 5.85439 147.822 5.52796 147.586 5.25102C147.349 4.97437 147.061 4.75967 146.723 4.60636C146.384 4.45276 146.005 4.37638 145.586 4.37638H144.166V10.5959H145.586C145.987 10.5959 146.356 10.5111 146.691 10.341C147.027 10.171 147.316 9.94446 147.559 9.66102C147.802 9.37786 147.989 9.04605 148.121 8.66615C148.252 8.28569 148.318 7.88599 148.318 7.46592Z" fill="#204859"/>
<path d="M152.833 11.4544L155.575 3.51758H156.911L159.642 11.4541H157.895L157.343 9.67686H155.123L154.581 11.4541H152.833V11.4544ZM156.238 5.46261L155.384 8.41355H157.062L156.238 5.46261Z" fill="#204859"/>
<path d="M160.295 11.4544V3.51758H161.942V11.4541H160.295V11.4544Z" fill="#204859"/>
</g>
<defs>
<clipPath id="clip0_2191_63923">
<rect width="88" height="13" fill="white" transform="translate(74 1)"/>
</clipPath>
</defs>
</svg>
